<?xml version="1.0" encoding="utf-8"?>
<!-- Generator: Adobe Illustrator 28.0.0, SVG Export Plug-In . SVG Version: 6.00 Build 0)  -->
<svg version="1.1" id="Layer_1" xmlns="http://www.w3.org/2000/svg" xmlns:xlink="http://www.w3.org/1999/xlink" x="0px" y="0px"
	 viewBox="0 0 60 60" style="enable-background:new 0 0 60 60;" xml:space="preserve">
<style type="text/css">
	.st0{fill:#EBF4F4;}
</style>
<g id="insta">
	<g id="Rectangle_1">
		<path class="st0" d="M33.2,59.6H27c-12.1,0-18.2,0-22.3-4.1c-4.1-4.1-4.1-10.2-4.1-22.3V27c0-12.1,0-18.2,4.1-22.3
			C8.8,0.6,14.9,0.6,27,0.6h6.2c12.1,0,18.2,0,22.3,4.1c4.1,4.1,4.1,10.2,4.1,22.3v6.2c0,12.1,0,18.2-4.1,22.3
			C51.4,59.6,45.3,59.6,33.2,59.6z M27,3.9c-11.2,0-16.9,0-20,3.2c-3.2,3.2-3.2,8.8-3.2,20v6.2c0,11.2,0,16.9,3.2,20
			c3.2,3.2,8.8,3.2,20,3.2h6.2c11.2,0,16.9,0,20-3.2c3.2-3.2,3.2-8.8,3.2-20V27c0-11.2,0-16.9-3.2-20c-3.2-3.2-8.8-3.2-20-3.2H27z"
			/>
	</g>
	<g id="Ellipse_46">
		<circle class="st0" cx="44" cy="16.2" r="4.6"/>
	</g>
	<g id="Ellipse_55">
		<path class="st0" d="M30.1,41.1c-6,0-10.9-4.9-10.9-10.9s4.9-10.9,10.9-10.9S41,24.1,41,30.1S36.1,41.1,30.1,41.1z M30.1,22.5
			c-4.2,0-7.7,3.4-7.7,7.7s3.4,7.7,7.7,7.7s7.7-3.4,7.7-7.7S34.3,22.5,30.1,22.5z"/>
	</g>
</g>
</svg>
