<?xml version="1.0" encoding="utf-8"?>
<!-- Generator: Adobe Illustrator 28.0.0, SVG Export Plug-In . SVG Version: 6.00 Build 0)  -->
<svg version="1.1" id="Layer_1" xmlns="http://www.w3.org/2000/svg" xmlns:xlink="http://www.w3.org/1999/xlink" x="0px" y="0px"
	 viewBox="0 0 60 60" style="enable-background:new 0 0 60 60;" xml:space="preserve">
<style type="text/css">
	.st0{fill:#EBF4F4;}
</style>
<path class="st0" d="M47.3,0.4H12.7C5.8,0.4,0.3,6,0.3,12.8v34.6c0,6.8,5.5,12.4,12.4,12.4h34.6c6.8,0,12.4-5.5,12.4-12.4V12.8
	C59.6,6,54.1,0.4,47.3,0.4z M20.1,47.4h-7.4V20.2h7.4V47.4z M16.4,17.1c-2.4,0-4.3-2-4.3-4.4s1.9-4.4,4.3-4.4s4.3,2,4.3,4.4
	S18.8,17.1,16.4,17.1z M49.7,47.4h-7.4V33.5c0-8.3-9.9-7.7-9.9,0v13.8H25V20.2h7.4v4.4c3.4-6.4,17.3-6.9,17.3,6.1V47.4z"/>
</svg>
