<?xml version="1.0" encoding="utf-8"?>
<!-- Generator: Adobe Illustrator 28.0.0, SVG Export Plug-In . SVG Version: 6.00 Build 0)  -->
<svg version="1.1" id="Layer_1" xmlns="http://www.w3.org/2000/svg" xmlns:xlink="http://www.w3.org/1999/xlink" x="0px" y="0px"
	 viewBox="0 0 60 60" style="enable-background:new 0 0 60 60;" xml:space="preserve">
<style type="text/css">
	.st0{fill:#EBF4F4;}
</style>
<g>
	<path class="st0" d="M29.8,34.4c-1.4,0-2.8-0.4-4.1-1.2L0.4,17.7l1.9-3.1l25.2,15.5c1.4,0.9,3,0.9,4.4,0l25.2-15.5l1.9,3.1
		L33.9,33.2C32.6,34,31.2,34.4,29.8,34.4z"/>
</g>
<g>
	<path class="st0" d="M48.4,59.2H11.7C5.4,59.2,0.2,54,0.2,47.6V12.8c0-6.4,5.2-11.6,11.6-11.6h36.7C54.8,1.2,60,6.4,60,12.8v34.9
		C60,54,54.8,59.2,48.4,59.2z M11.7,4.8c-4.4,0-7.9,3.6-7.9,7.9v34.9c0,4.4,3.6,7.9,7.9,7.9h36.7c4.4,0,7.9-3.6,7.9-7.9V12.8
		c0-4.4-3.6-7.9-7.9-7.9H11.7z"/>
</g>
</svg>
