<?xml version="1.0" encoding="utf-8"?>
<!-- Generator: Adobe Illustrator 27.7.0, SVG Export Plug-In . SVG Version: 6.00 Build 0)  -->
<svg version="1.1" id="Layer_1" xmlns="http://www.w3.org/2000/svg" xmlns:xlink="http://www.w3.org/1999/xlink" x="0px" y="0px"
	 viewBox="0 0 37 42" style="enable-background:new 0 0 37 42;" xml:space="preserve">
<style type="text/css">
	.st0{fill:#5BABA9;}
</style>
<path id="_x3E_" class="st0" d="M0.5,20.2c0-0.4,0.2-0.7,0.6-0.9c0.4-0.2,1.1-0.5,2.2-0.9c1.6-1.7,5.4-5.2,11.4-10.3
	c6.1-5.1,9.4-7.6,10-7.6c1.5,0,3.7,0.3,6.6,0.8c2.8,0.5,4.2,1.2,4.2,2c0,0.7-0.1,1.2-0.3,1.5c-0.3,0.4-0.9,1-1.7,1.9L20,19.1
	c-0.7,0.1-1.1,0.8-1.1,2.1v0.5c0,0.5,0.4,1.1,1.1,1.9c1.3,1.3,3.5,3.5,6.7,6.4l6.8,6.5c1.2,0.5,2,0.9,2.4,1.2s0.6,0.8,0.6,1.3
	c0,1-1.1,1.7-3.3,2c-2.3,0.3-4.7,0.5-7.2,0.5h-2c-2.5-3.3-5.6-6.5-9.4-9.7C10.7,28.6,6.1,25,0.8,21L0.5,20.2z M27.7,37.8
	c-0.2-0.4-0.6-0.7-1.3-1c-0.6-0.3-1.1-0.4-1.4-0.4c-0.1,0-0.2,0-0.2,0c0,0.1,0,0.1,0,0.1c0.6,0.9,1.3,1.6,1.9,1.9L27.7,37.8z
	 M24.9,33.5c0-0.7-0.9-1.6-2.7-2.7c-1.9-1.1-3.5-1.6-5-1.6c0.8,1.1,1.9,2.2,3.3,3.3c1.4,1.1,2.8,1.7,4.4,1.7
	C24.9,34.2,24.9,33.5,24.9,33.5z M17.2,26.6l-3-3h-1.7c0,0.8,0.4,1.5,1.3,2.1c0.7,0.7,1.7,1,3,1L17.2,26.6z M11.3,22.9
	c0.7-0.1,1.3-0.3,1.6-0.7c0.3-0.4,0.5-0.8,0.5-1.2c0-0.7-0.6-1.1-1.7-1.2s-2.2-0.2-3.3-0.2s-1.7,0-2,0c0,0.8,0.5,1.5,1.4,2.2
	C8.6,22.5,9.8,22.9,11.3,22.9z M13.3,19.1c-0.7-0.7-1.4-1.2-2-1.5c-0.6-0.2-1.6-0.3-3-0.3C9.6,18.5,11.2,19.1,13.3,19.1z M11.3,16.7
	c0.5,0.5,1.5,1,2.8,1.3s1.9,0.5,2,0.6c0.5-0.3,0.8-0.7,0.9-1s0.2-0.7,0.2-1.3c0-0.7-0.4-1.2-1.3-1.6s-2-0.6-3.1-0.6
	c0,1.1,0.8,2,2.3,2.6H11.3z M18.7,14.9c0.3,0,0.7-0.1,1.1-0.4c0.3-0.2,0.5-0.4,0.5-0.6c0-0.3-0.3-0.6-0.9-0.8
	c-0.7-0.1-1.4-0.2-2-0.2L16.3,13c0.1,0.1,0.4,0.4,0.8,1C17.4,14.6,17.9,14.9,18.7,14.9z M16.2,11.2c0.4,0.4,1.2,0.6,2.3,0.6h0.6
	l-1.9-1.3L16.2,11.2z M21.9,9.2c-0.2-0.1-0.7-0.1-1.6-0.1c-1.4,0-2.1,0.2-2.3,0.7c1.3,0.9,2.6,1.3,4.1,1.3c0.2,0,1-0.6,2.5-1.7
	c1.4-1.1,2.1-1.7,2.2-2c0-0.3-0.1-0.6-0.3-1.1c-0.2-0.4-0.4-0.7-0.6-0.8h3L25,4.3c-0.1,0-0.4,0.2-0.8,0.6c-0.5,0.4-1,0.7-1.4,1
	C21.5,7,20.7,7.7,20.1,8L21.9,9.2z"/>
</svg>
