<?xml version="1.0" encoding="utf-8"?>
<!-- Generator: Adobe Illustrator 28.0.0, SVG Export Plug-In . SVG Version: 6.00 Build 0)  -->
<svg version="1.1" id="Layer_1" xmlns="http://www.w3.org/2000/svg" xmlns:xlink="http://www.w3.org/1999/xlink" x="0px" y="0px"
	 viewBox="0 0 37 42" style="enable-background:new 0 0 37 42;" xml:space="preserve">
<path id="_x3E_" d="M36.5,21.8c0,0.4-0.2,0.7-0.6,0.9c-0.4,0.2-1.1,0.5-2.2,0.9c-1.6,1.7-5.4,5.2-11.4,10.3c-6.1,5.1-9.4,7.6-10,7.6
	c-1.5,0-3.7-0.3-6.6-0.8c-2.8-0.5-4.2-1.2-4.2-2c0-0.7,0.1-1.2,0.3-1.5c0.3-0.4,0.9-1,1.7-1.9l13.5-12.4c0.7-0.1,1.1-0.8,1.1-2.1
	v-0.5c0-0.5-0.4-1.1-1.1-1.9c-1.3-1.3-3.5-3.5-6.7-6.4L3.5,5.5C2.3,5,1.5,4.6,1.1,4.3C0.7,4,0.5,3.5,0.5,3c0-1,1.1-1.7,3.3-2
	C6.1,0.7,8.5,0.5,11,0.5h2c2.5,3.3,5.6,6.5,9.4,9.7c3.9,3.2,8.5,6.8,13.8,10.8L36.5,21.8z M9.3,4.2c0.2,0.4,0.6,0.7,1.3,1
	c0.6,0.3,1.1,0.4,1.4,0.4c0.1,0,0.2,0,0.2,0c0-0.1,0-0.1,0-0.1c-0.6-0.9-1.3-1.6-1.9-1.9L9.3,4.2z M12.1,8.5c0,0.7,0.9,1.6,2.7,2.7
	c1.9,1.1,3.5,1.6,5,1.6c-0.8-1.1-1.9-2.2-3.3-3.3c-1.4-1.1-2.8-1.7-4.4-1.7V8.5z M19.8,15.4l3,3h1.7c0-0.8-0.4-1.5-1.3-2.1
	c-0.7-0.7-1.7-1-3-1L19.8,15.4z M25.7,19.1c-0.7,0.1-1.3,0.3-1.6,0.7c-0.3,0.4-0.5,0.8-0.5,1.2c0,0.7,0.6,1.1,1.7,1.2
	c1.1,0.1,2.2,0.2,3.3,0.2s1.7,0,2,0c0-0.8-0.5-1.5-1.4-2.2C28.4,19.5,27.2,19.1,25.7,19.1z M23.7,22.9c0.7,0.7,1.4,1.2,2,1.5
	c0.6,0.2,1.6,0.3,3,0.3C27.4,23.5,25.8,22.9,23.7,22.9z M25.7,25.3c-0.5-0.5-1.5-1-2.8-1.3c-1.3-0.3-1.9-0.5-2-0.6
	c-0.5,0.3-0.8,0.7-0.9,1c-0.1,0.3-0.2,0.7-0.2,1.3c0,0.7,0.4,1.2,1.3,1.6c0.9,0.4,2,0.6,3.1,0.6c0-1.1-0.8-2-2.3-2.6H25.7z
	 M18.3,27.1c-0.3,0-0.7,0.1-1.1,0.4c-0.3,0.2-0.5,0.4-0.5,0.6c0,0.3,0.3,0.6,0.9,0.8c0.7,0.1,1.4,0.2,2,0.2l1.1-0.1
	c-0.1-0.1-0.4-0.4-0.8-1C19.6,27.4,19.1,27.1,18.3,27.1z M20.8,30.8c-0.4-0.4-1.2-0.6-2.3-0.6h-0.6l1.9,1.3L20.8,30.8z M15.1,32.8
	c0.2,0.1,0.7,0.1,1.6,0.1c1.4,0,2.1-0.2,2.3-0.7c-1.3-0.9-2.6-1.3-4.1-1.3c-0.2,0-1,0.6-2.5,1.7c-1.4,1.1-2.1,1.7-2.2,2
	c0,0.3,0.1,0.6,0.3,1.1c0.2,0.4,0.4,0.7,0.6,0.8h-3l3.9,1.2c0.1,0,0.4-0.2,0.8-0.6c0.5-0.4,1-0.7,1.4-1c1.3-1.1,2.1-1.8,2.7-2.1
	L15.1,32.8z"/>
</svg>
