<svg width="37" height="42" viewBox="0 0 37 42" fill="none" xmlns="http://www.w3.org/2000/svg">
<path id="&#62;" d="M0.500002 20.1961C0.500002 19.7941 0.7087 19.4926 1.12609 19.2917C1.54348 19.0907 2.27391 18.7892 3.31739 18.3873C4.88261 16.6454 8.69131 13.2288 14.7435 8.13725C20.7957 3.04575 24.1348 0.499999 24.7609 0.499999C26.2217 0.499999 28.413 0.76797 31.3348 1.30392C34.1522 1.83987 35.5609 2.50981 35.5609 3.31373C35.5609 3.98367 35.4565 4.48611 35.2478 4.82108C34.9348 5.22304 34.3609 5.85948 33.5261 6.73039L20.0652 19.0907C19.3348 19.2247 18.9696 19.9281 18.9696 21.201L18.9696 21.7034C18.9696 22.1724 19.3348 22.8088 20.0652 23.6127C21.3174 24.9526 23.5609 27.0964 26.7957 30.0441L33.5261 36.4755C34.6739 37.0114 35.4565 37.4134 35.8739 37.6814C36.2913 38.0163 36.5 38.4518 36.5 38.9877C36.5 39.9926 35.4043 40.6626 33.213 40.9976C30.9174 41.3325 28.5174 41.5 26.013 41.5L23.9783 41.5C21.4739 38.2173 18.3435 34.9681 14.587 31.7525C10.7261 28.5368 6.13479 24.9526 0.813047 21L0.500002 20.1961ZM27.7348 37.7819C27.5261 37.3799 27.1087 37.0449 26.4826 36.777C25.8565 36.509 25.387 36.375 25.0739 36.375C24.9696 36.375 24.9174 36.375 24.9174 36.375C24.9174 36.442 24.9174 36.4755 24.9174 36.4755C25.5435 37.4134 26.1696 38.0498 26.7957 38.3848L27.7348 37.7819ZM24.9174 33.4608C24.9174 32.7909 24.0304 31.8864 22.2565 30.7476C20.3783 29.6757 18.7087 29.1397 17.2478 29.1397C18.0826 30.2786 19.1783 31.384 20.5348 32.4559C21.8913 33.5948 23.3522 34.1642 24.9174 34.1642L24.9174 33.4608ZM17.2478 26.6275L14.2739 23.6127L12.5522 23.6127C12.5522 24.4167 12.9696 25.1201 13.8043 25.723C14.5348 26.393 15.5261 26.7279 16.7783 26.7279L17.2478 26.6275ZM11.3 22.9093C12.0304 22.8423 12.5522 22.6078 12.8652 22.2059C13.1783 21.8039 13.3348 21.402 13.3348 21C13.3348 20.3301 12.7609 19.9281 11.613 19.7941C10.4652 19.6601 9.36957 19.5931 8.32609 19.5931C7.28261 19.5931 6.60435 19.5931 6.29131 19.5931C6.29131 20.3971 6.76087 21.134 7.7 21.8039C8.63913 22.5408 9.83913 22.9093 11.3 22.9093ZM13.3348 19.0907C12.6043 18.3538 11.9261 17.8513 11.3 17.5833C10.6739 17.3824 9.68261 17.2819 8.32609 17.2819C9.57826 18.4877 11.2478 19.0907 13.3348 19.0907ZM11.3 16.6789C11.8217 17.2149 12.7609 17.6503 14.1174 17.9853C15.3696 18.3203 16.0478 18.5212 16.1522 18.5882C16.6739 18.2533 16.987 17.9183 17.0913 17.5833C17.1957 17.3154 17.2478 16.8799 17.2478 16.277C17.2478 15.607 16.8304 15.0711 15.9957 14.6691C15.0565 14.2672 14.013 14.0662 12.8652 14.0662C12.8652 15.2051 13.6478 16.076 15.213 16.6789L11.3 16.6789ZM18.6565 14.8701C18.9696 14.8701 19.3348 14.7361 19.7522 14.4681C20.0652 14.2672 20.2217 14.0662 20.2217 13.8652C20.2217 13.5302 19.9087 13.2623 19.2826 13.0613C18.5522 12.9273 17.8739 12.8603 17.2478 12.8603L16.1522 12.9608C16.2565 13.0278 16.5174 13.3627 16.9348 13.9657C17.3522 14.5686 17.9261 14.8701 18.6565 14.8701ZM16.1522 11.152C16.5696 11.5539 17.3522 11.7549 18.5 11.7549L19.1261 11.7549L17.2478 10.4485L16.1522 11.152ZM21.9435 9.24265C21.7348 9.17565 21.213 9.14216 20.3783 9.14216C19.0217 9.14216 18.2391 9.37663 18.0304 9.84559C19.2826 10.7165 20.6391 11.152 22.1 11.152C22.3087 11.152 23.1435 10.5825 24.6044 9.44363C25.9609 8.37173 26.6913 7.7018 26.7957 7.43383C26.7957 7.16585 26.6913 6.79739 26.4826 6.32843C26.2739 5.92647 26.0652 5.6585 25.8565 5.52451L28.8304 5.52451L24.9174 4.31863C24.813 4.31863 24.5522 4.51961 24.1348 4.92157C23.613 5.32353 23.1435 5.6585 22.7261 5.92647C21.4739 6.99837 20.587 7.7018 20.0652 8.03677L21.9435 9.24265Z" fill="black"/>
</svg>
